<svg width="43" height="33" viewBox="0 0 43 33" fill="none" xmlns="http://www.w3.org/2000/svg">
<path d="M35.7731 3.03235C33.0798 1.79655 30.1915 0.88603 27.1717 0.364493C27.1167 0.354424 27.0617 0.379597 27.0334 0.42986C26.6619 1.09055 26.2505 1.95238 25.9624 2.62983C22.7144 2.14353 19.483 2.14353 16.3016 2.62983C16.0134 1.93736 15.587 1.09055 15.2139 0.42986C15.1856 0.381247 15.1306 0.356074 15.0756 0.364493C12.0575 0.884297 9.16926 1.79482 6.47417 3.03235C6.45082 3.04242 6.43084 3.05917 6.41755 3.08096C0.939225 11.2655 -0.561587 19.2489 0.174623 27.1333C0.177925 27.1719 0.199631 27.2088 0.229591 27.2322C3.84404 29.8866 7.34533 31.498 10.7815 32.5662C10.8365 32.5829 10.8947 32.5629 10.9297 32.5176C11.7425 31.4076 12.4671 30.2371 13.0883 29.0063C13.125 28.9342 13.09 28.8487 13.0151 28.8202C11.8658 28.3842 10.7714 27.8526 9.7187 27.249C9.63542 27.2004 9.62874 27.0813 9.70541 27.0243C9.92693 26.8583 10.1485 26.6856 10.3601 26.5112C10.3984 26.4793 10.4517 26.4726 10.4967 26.4927C17.4124 29.6502 24.8996 29.6502 31.7337 26.4927C31.7787 26.4709 31.832 26.4777 31.8719 26.5095C32.0836 26.6838 32.3051 26.8582 32.5283 27.0242C32.6049 27.0813 32.5998 27.2003 32.5166 27.249C31.4639 27.8643 30.3696 28.3841 29.2186 28.8184C29.1437 28.8469 29.1103 28.9342 29.1471 29.0062C29.7817 30.2353 30.5062 31.4057 31.304 32.5158C31.3374 32.5628 31.3973 32.5829 31.4523 32.5661C34.9051 31.498 38.4064 29.8865 42.0208 27.2321C42.0525 27.2087 42.0725 27.1734 42.0758 27.1349C42.9569 18.0197 40.6 10.1017 35.8279 3.08253C35.8164 3.05917 35.7964 3.04242 35.7731 3.03235ZM14.1213 22.3325C12.0392 22.3325 10.3235 20.421 10.3235 18.0734C10.3235 15.7258 12.0058 13.8143 14.1213 13.8143C16.2532 13.8143 17.9523 15.7426 17.9189 18.0734C17.9189 20.421 16.2366 22.3325 14.1213 22.3325ZM28.1627 22.3325C26.0806 22.3325 24.365 20.421 24.365 18.0734C24.365 15.7258 26.0473 13.8143 28.1627 13.8143C30.2947 13.8143 31.9937 15.7426 31.9604 18.0734C31.9604 20.421 30.2948 22.3325 28.1627 22.3325Z" fill="white"/>
</svg>
