<svg width="226" height="25" viewBox="0 0 226 25" fill="none" xmlns="http://www.w3.org/2000/svg">
<path d="M31.0132 2.57178L21.5239 11.9999L31.0132 21.4281C31.1847 21.0696 31.2888 20.6732 31.2888 20.2499V3.74994C31.2888 3.32662 31.1847 2.93032 31.0132 2.57178Z" fill="white"/>
<path d="M28.5388 1H2.74994C2.32662 1 1.93032 1.10407 1.57178 1.27561L13.7001 13.3428C14.7724 14.4152 16.5163 14.4152 17.5887 13.3428L29.717 1.27561C29.3584 1.10407 28.9621 1 28.5388 1Z" fill="white"/>
<path d="M0.275611 2.57178C0.104072 2.93032 0 3.32662 0 3.74994V20.2499C0 20.6732 0.104072 21.0696 0.275611 21.4281L9.76488 11.9999L0.275611 2.57178Z" fill="white"/>
<path d="M20.2277 13.2964L18.8849 14.6392C17.0981 16.426 14.1906 16.426 12.4038 14.6392L11.061 13.2964L1.57178 22.7245C1.93032 22.8961 2.32662 23.0002 2.74994 23.0002H28.5388C28.9621 23.0002 29.3584 22.8961 29.717 22.7245L20.2277 13.2964Z" fill="white"/>
<path d="M49.9225 20V5.97249H51.538V9.79459L51.4395 12.0603H51.4986C51.9846 11.5349 52.5165 11.0949 53.0944 10.7403C53.6723 10.3725 54.3356 10.1886 55.0843 10.1886C56.2138 10.1886 57.0479 10.517 57.5864 11.1737C58.1249 11.8304 58.3941 12.7892 58.3941 14.0501V20H56.7786V14.2668C56.7786 13.3606 56.6079 12.6907 56.2664 12.2573C55.9249 11.8107 55.3601 11.5874 54.572 11.5874C54.0072 11.5874 53.5016 11.7319 53.055 12.0209C52.6084 12.3098 52.1028 12.7433 51.538 13.3212V20H49.9225ZM66.405 20.2364C65.4462 20.2364 64.5727 20.0394 63.7847 19.6454C63.0097 19.2513 62.3924 18.68 61.9327 17.9313C61.473 17.1695 61.2432 16.2567 61.2432 15.1928C61.2432 14.1552 61.473 13.2621 61.9327 12.5134C62.3924 11.7647 62.99 11.1934 63.7256 10.7994C64.4742 10.3922 65.2754 10.1886 66.1291 10.1886C67.0486 10.1886 67.83 10.3791 68.4736 10.76C69.1303 11.1277 69.6295 11.6465 69.9709 12.3164C70.3256 12.9862 70.5029 13.7743 70.5029 14.6806C70.5029 14.8645 70.4963 15.0418 70.4832 15.2125C70.4701 15.3833 70.4504 15.5343 70.4241 15.6657H62.3267V14.4048H69.4587L69.045 14.8579C69.045 13.7283 68.7823 12.8812 68.2569 12.3164C67.7447 11.7516 67.0486 11.4692 66.1685 11.4692C65.5775 11.4692 65.0259 11.6137 64.5136 11.9027C64.0145 12.1916 63.6139 12.6119 63.3118 13.1636C63.0097 13.7152 62.8587 14.3916 62.8587 15.1928C62.8587 16.0203 63.0229 16.7098 63.3512 17.2615C63.6796 17.8131 64.1262 18.2334 64.6909 18.5224C65.2557 18.7982 65.8927 18.9361 66.602 18.9361C67.1799 18.9361 67.6987 18.8573 68.1584 18.6997C68.6312 18.529 69.0844 18.3057 69.5178 18.0298L70.1089 19.0937C69.636 19.409 69.0909 19.6782 68.4736 19.9015C67.8694 20.1248 67.1799 20.2364 66.405 20.2364ZM79.7155 20.2364C78.7042 20.2364 77.9293 19.9475 77.3907 19.3696C76.8522 18.7785 76.583 17.9182 76.583 16.7886V7.29249H73.3125V5.97249H78.1985V16.9069C78.1985 17.603 78.3693 18.1087 78.7107 18.4239C79.0522 18.7391 79.5054 18.8967 80.0702 18.8967C80.346 18.8967 80.6284 18.8639 80.9173 18.7982C81.2063 18.7194 81.5281 18.6012 81.8827 18.4436L82.2964 19.6651C81.863 19.8227 81.4558 19.954 81.0749 20.0591C80.694 20.1773 80.2409 20.2364 79.7155 20.2364ZM91.5288 20.2364C90.5174 20.2364 89.7425 19.9475 89.204 19.3696C88.6655 18.7785 88.3962 17.9182 88.3962 16.7886V7.29249H85.1258V5.97249H90.0117V16.9069C90.0117 17.603 90.1825 18.1087 90.524 18.4239C90.8655 18.7391 91.3186 18.8967 91.8834 18.8967C92.1592 18.8967 92.4416 18.8639 92.7306 18.7982C93.0195 18.7194 93.3413 18.6012 93.6959 18.4436L94.1097 19.6651C93.6762 19.8227 93.2691 19.954 92.8882 20.0591C92.5073 20.1773 92.0541 20.2364 91.5288 20.2364ZM101.254 20.2364C100.413 20.2364 99.6315 20.0394 98.9092 19.6454C98.1999 19.2513 97.622 18.68 97.1754 17.9313C96.742 17.1827 96.5253 16.283 96.5253 15.2322C96.5253 14.1552 96.742 13.2424 97.1754 12.4937C97.622 11.745 98.1999 11.1737 98.9092 10.7797C99.6315 10.3856 100.413 10.1886 101.254 10.1886C102.094 10.1886 102.869 10.3856 103.578 10.7797C104.301 11.1737 104.879 11.745 105.312 12.4937C105.759 13.2424 105.982 14.1552 105.982 15.2322C105.982 16.283 105.759 17.1827 105.312 17.9313C104.879 18.68 104.301 19.2513 103.578 19.6454C102.869 20.0394 102.094 20.2364 101.254 20.2364ZM101.254 18.8967C101.871 18.8967 102.409 18.7457 102.869 18.4436C103.329 18.1284 103.684 17.6949 103.933 17.1433C104.183 16.5916 104.307 15.9546 104.307 15.2322C104.307 14.4967 104.183 13.8531 103.933 13.3015C103.684 12.7367 103.329 12.3033 102.869 12.0012C102.409 11.6859 101.871 11.5283 101.254 11.5283C100.636 11.5283 100.098 11.6859 99.6381 12.0012C99.1915 12.3033 98.8369 12.7367 98.5742 13.3015C98.3247 13.8531 98.1999 14.4967 98.1999 15.2322C98.1999 15.9546 98.3247 16.5916 98.5742 17.1433C98.8369 17.6949 99.1915 18.1284 99.6381 18.4436C100.098 18.7457 100.636 18.8967 101.254 18.8967ZM113.875 22.837C113.1 22.837 112.364 22.6728 111.668 22.3445C110.972 22.0161 110.361 21.5236 109.836 20.8669C109.31 20.2102 108.89 19.3958 108.575 18.4239C108.273 17.4519 108.122 16.3355 108.122 15.0746C108.122 13.3934 108.378 11.9946 108.89 10.8782C109.416 9.74862 110.112 8.90145 110.979 8.33668C111.859 7.7719 112.837 7.48951 113.914 7.48951C114.82 7.48951 115.569 7.69309 116.16 8.10026C116.751 8.50742 117.191 9.06563 117.48 9.77489C117.769 10.4841 117.913 11.2853 117.913 12.1785V18.0298H116.928L116.79 16.8872H116.712C116.423 17.2549 116.042 17.5767 115.569 17.8525C115.109 18.1284 114.623 18.2663 114.111 18.2663C113.651 18.2663 113.224 18.1612 112.83 17.951C112.45 17.7409 112.141 17.4454 111.904 17.0645C111.681 16.6704 111.57 16.2107 111.57 15.6854C111.57 15.0155 111.767 14.4573 112.161 14.0107C112.568 13.5642 113.159 13.203 113.934 12.9271C114.709 12.6513 115.654 12.4477 116.771 12.3164V12.0406C116.771 11.4101 116.666 10.8322 116.456 10.3068C116.259 9.78146 115.943 9.36116 115.51 9.04593C115.09 8.73071 114.531 8.57309 113.835 8.57309C113.244 8.57309 112.679 8.711 112.141 8.98683C111.602 9.26265 111.123 9.67638 110.703 10.228C110.282 10.7665 109.954 11.4495 109.718 12.277C109.481 13.0913 109.363 14.0436 109.363 15.1337C109.363 16.5391 109.56 17.7409 109.954 18.7391C110.361 19.7242 110.906 20.4728 111.589 20.9851C112.285 21.4973 113.06 21.7534 113.914 21.7534C114.505 21.7534 115.017 21.6746 115.451 21.517C115.897 21.3725 116.311 21.1558 116.692 20.8669L117.244 21.7534C116.731 22.0949 116.199 22.3576 115.648 22.5415C115.109 22.7385 114.518 22.837 113.875 22.837ZM114.446 17.1236C114.814 17.1236 115.182 17.0185 115.549 16.8083C115.917 16.5851 116.285 16.2698 116.653 15.8627V13.3803C115.287 13.5773 114.315 13.8531 113.737 14.2077C113.159 14.5624 112.87 15.0418 112.87 15.646C112.87 16.1057 113.014 16.4669 113.303 16.7295C113.592 16.9922 113.973 17.1236 114.446 17.1236ZM125.077 20.2364C124.145 20.2364 123.271 20.0854 122.457 19.7833C121.643 19.4812 120.946 19.1331 120.368 18.7391L121.117 17.6752C121.669 18.0692 122.28 18.3845 122.949 18.6209C123.619 18.8573 124.394 18.9755 125.274 18.9755C126.088 18.9755 126.693 18.8245 127.087 18.5224C127.494 18.2203 127.697 17.8722 127.697 17.4782C127.697 17.2943 127.658 17.1236 127.579 16.966C127.514 16.8083 127.376 16.6573 127.166 16.5128C126.968 16.3683 126.673 16.2304 126.279 16.0991C125.885 15.9677 125.36 15.8364 124.703 15.7051C123.455 15.4424 122.516 15.0877 121.885 14.6412C121.268 14.1946 120.96 13.6167 120.96 12.9074C120.96 12.1325 121.294 11.4889 121.964 10.9767C122.634 10.4513 123.626 10.1886 124.939 10.1886C125.675 10.1886 126.384 10.3134 127.067 10.563C127.75 10.7994 128.328 11.0818 128.801 11.4101L128.013 12.4543C127.579 12.1391 127.087 11.8961 126.535 11.7253C125.983 11.5415 125.406 11.4495 124.801 11.4495C124.25 11.4495 123.81 11.5152 123.481 11.6465C123.166 11.7647 122.936 11.9289 122.792 12.1391C122.66 12.3492 122.595 12.5791 122.595 12.8286C122.595 13.2358 122.811 13.5576 123.245 13.794C123.691 14.0173 124.401 14.2274 125.373 14.4245C126.437 14.6477 127.251 14.8973 127.816 15.1731C128.394 15.4489 128.788 15.7642 128.998 16.1188C129.221 16.4734 129.333 16.8937 129.333 17.3797C129.333 17.9051 129.168 18.3845 128.84 18.8179C128.512 19.2382 128.032 19.5797 127.402 19.8424C126.771 20.1051 125.997 20.2364 125.077 20.2364ZM138.545 20.2364C137.613 20.2364 136.877 20.0722 136.339 19.7439C135.8 19.4024 135.413 18.9361 135.176 18.3451C134.953 17.754 134.841 17.0645 134.841 16.2764V11.745H132.142V10.5235L134.901 10.425L135.117 7.3516H136.457V10.425H141.166V11.745H136.457V16.2961C136.457 16.8609 136.529 17.3403 136.674 17.7343C136.818 18.1284 137.068 18.4239 137.422 18.6209C137.777 18.8179 138.263 18.9164 138.88 18.9164C139.34 18.9164 139.754 18.877 140.121 18.7982C140.489 18.7194 140.844 18.6143 141.185 18.483L141.54 19.6651C141.107 19.8227 140.647 19.954 140.161 20.0591C139.688 20.1773 139.149 20.2364 138.545 20.2364ZM149.098 20.2364C148.139 20.2364 147.265 20.0394 146.477 19.6454C145.702 19.2513 145.085 18.68 144.625 17.9313C144.166 17.1695 143.936 16.2567 143.936 15.1928C143.936 14.1552 144.166 13.2621 144.625 12.5134C145.085 11.7647 145.683 11.1934 146.418 10.7994C147.167 10.3922 147.968 10.1886 148.822 10.1886C149.741 10.1886 150.523 10.3791 151.166 10.76C151.823 11.1277 152.322 11.6465 152.664 12.3164C153.018 12.9862 153.196 13.7743 153.196 14.6806C153.196 14.8645 153.189 15.0418 153.176 15.2125C153.163 15.3833 153.143 15.5343 153.117 15.6657H145.019V14.4048H152.151L151.738 14.8579C151.738 13.7283 151.475 12.8812 150.95 12.3164C150.437 11.7516 149.741 11.4692 148.861 11.4692C148.27 11.4692 147.719 11.6137 147.206 11.9027C146.707 12.1916 146.307 12.6119 146.005 13.1636C145.702 13.7152 145.551 14.3916 145.551 15.1928C145.551 16.0203 145.716 16.7098 146.044 17.2615C146.372 17.8131 146.819 18.2334 147.384 18.5224C147.948 18.7982 148.585 18.9361 149.295 18.9361C149.873 18.9361 150.391 18.8573 150.851 18.6997C151.324 18.529 151.777 18.3057 152.211 18.0298L152.802 19.0937C152.329 19.409 151.784 19.6782 151.166 19.9015C150.562 20.1248 149.873 20.2364 149.098 20.2364ZM156.242 24.0388V10.425H157.581L157.719 11.6465H157.778C158.225 11.2262 158.737 10.8782 159.315 10.6024C159.906 10.3265 160.497 10.1886 161.088 10.1886C161.955 10.1886 162.677 10.3922 163.255 10.7994C163.846 11.1934 164.293 11.7582 164.595 12.4937C164.897 13.2161 165.048 14.0764 165.048 15.0746C165.048 16.1516 164.845 17.0776 164.437 17.8525C164.03 18.6275 163.498 19.2185 162.842 19.6257C162.185 20.0328 161.469 20.2364 160.694 20.2364C160.261 20.2364 159.781 20.1313 159.256 19.9212C158.744 19.6979 158.271 19.3893 157.837 18.9952H157.778L157.857 20.8078V24.0388H156.242ZM160.418 18.877C160.983 18.877 161.489 18.726 161.935 18.4239C162.382 18.1218 162.73 17.6883 162.98 17.1236C163.242 16.5457 163.374 15.8627 163.374 15.0746C163.374 14.3785 163.282 13.7677 163.098 13.2424C162.914 12.7039 162.625 12.2901 162.231 12.0012C161.837 11.6991 161.318 11.548 160.674 11.548C160.241 11.548 159.781 11.6662 159.295 11.9027C158.823 12.1259 158.343 12.4871 157.857 12.9862V17.754C158.317 18.1612 158.777 18.4501 159.236 18.6209C159.709 18.7916 160.103 18.877 160.418 18.877ZM168.055 20V10.425H169.395L169.532 12.0603H169.611C170.11 11.5218 170.649 11.0752 171.227 10.7206C171.805 10.3659 172.468 10.1886 173.217 10.1886C174.346 10.1886 175.18 10.517 175.719 11.1737C176.257 11.8304 176.527 12.7892 176.527 14.0501V20H174.911V14.2668C174.911 13.3606 174.74 12.6907 174.399 12.2573C174.057 11.8107 173.492 11.5874 172.704 11.5874C172.14 11.5874 171.634 11.7319 171.187 12.0209C170.741 12.3098 170.235 12.7433 169.67 13.3212V20H168.055ZM183.946 20.2364C183.513 20.2364 183.139 20.0854 182.823 19.7833C182.508 19.4681 182.351 19.0675 182.351 18.5815C182.351 18.0824 182.508 17.6818 182.823 17.3797C183.139 17.0645 183.513 16.9069 183.946 16.9069C184.393 16.9069 184.767 17.0645 185.069 17.3797C185.385 17.6818 185.542 18.0824 185.542 18.5815C185.542 19.0675 185.385 19.4681 185.069 19.7833C184.767 20.0854 184.393 20.2364 183.946 20.2364ZM196.666 20.2364C195.668 20.2364 194.768 20.0394 193.967 19.6454C193.179 19.2513 192.555 18.68 192.095 17.9313C191.649 17.1827 191.425 16.283 191.425 15.2322C191.425 14.1552 191.668 13.2424 192.154 12.4937C192.64 11.745 193.284 11.1737 194.085 10.7797C194.899 10.3856 195.792 10.1886 196.764 10.1886C197.552 10.1886 198.229 10.3265 198.794 10.6024C199.372 10.8782 199.857 11.2065 200.252 11.5874L199.444 12.6316C199.05 12.2901 198.643 12.0209 198.222 11.8239C197.802 11.6268 197.336 11.5283 196.823 11.5283C196.088 11.5283 195.438 11.6859 194.873 12.0012C194.308 12.3033 193.868 12.7367 193.553 13.3015C193.251 13.8531 193.1 14.4967 193.1 15.2322C193.1 15.9546 193.251 16.5916 193.553 17.1433C193.855 17.6949 194.282 18.1284 194.834 18.4436C195.398 18.7457 196.049 18.8967 196.784 18.8967C197.375 18.8967 197.914 18.7785 198.4 18.5421C198.899 18.3057 199.345 18.0233 199.739 17.6949L200.468 18.7391C199.943 19.2119 199.352 19.5797 198.695 19.8424C198.052 20.1051 197.375 20.2364 196.666 20.2364ZM207.573 20.2364C206.732 20.2364 205.951 20.0394 205.228 19.6454C204.519 19.2513 203.941 18.68 203.495 17.9313C203.061 17.1827 202.844 16.283 202.844 15.2322C202.844 14.1552 203.061 13.2424 203.495 12.4937C203.941 11.745 204.519 11.1737 205.228 10.7797C205.951 10.3856 206.732 10.1886 207.573 10.1886C208.413 10.1886 209.188 10.3856 209.898 10.7797C210.62 11.1737 211.198 11.745 211.631 12.4937C212.078 13.2424 212.301 14.1552 212.301 15.2322C212.301 16.283 212.078 17.1827 211.631 17.9313C211.198 18.68 210.62 19.2513 209.898 19.6454C209.188 20.0394 208.413 20.2364 207.573 20.2364ZM207.573 18.8967C208.19 18.8967 208.729 18.7457 209.188 18.4436C209.648 18.1284 210.003 17.6949 210.252 17.1433C210.502 16.5916 210.627 15.9546 210.627 15.2322C210.627 14.4967 210.502 13.8531 210.252 13.3015C210.003 12.7367 209.648 12.3033 209.188 12.0012C208.729 11.6859 208.19 11.5283 207.573 11.5283C206.955 11.5283 206.417 11.6859 205.957 12.0012C205.511 12.3033 205.156 12.7367 204.893 13.3015C204.644 13.8531 204.519 14.4967 204.519 15.2322C204.519 15.9546 204.644 16.5916 204.893 17.1433C205.156 17.6949 205.511 18.1284 205.957 18.4436C206.417 18.7457 206.955 18.8967 207.573 18.8967ZM214.618 20V10.425H215.919L216.056 11.6859H216.096C216.345 11.2394 216.634 10.8782 216.963 10.6024C217.291 10.3265 217.731 10.1886 218.283 10.1886C218.756 10.1886 219.143 10.3265 219.445 10.6024C219.747 10.8782 219.964 11.2919 220.095 11.8436C220.371 11.3313 220.673 10.9307 221.002 10.6418C221.343 10.3397 221.79 10.1886 222.341 10.1886C223.011 10.1886 223.53 10.4447 223.898 10.957C224.279 11.4561 224.469 12.185 224.469 13.1439V20H222.854V13.2621C222.854 12.1456 222.512 11.5874 221.829 11.5874C221.501 11.5874 221.225 11.7122 221.002 11.9618C220.791 12.1982 220.555 12.5659 220.292 13.065V20H218.795V13.2621C218.795 12.7104 218.716 12.2967 218.559 12.0209C218.414 11.7319 218.165 11.5874 217.81 11.5874C217.482 11.5874 217.193 11.7122 216.943 11.9618C216.707 12.1982 216.47 12.5659 216.234 13.065V20H214.618Z" fill="white"/>
</svg>
