<svg width="43" height="39" viewBox="0 0 43 39" fill="none" xmlns="http://www.w3.org/2000/svg">
<path d="M42.7567 19.5097C42.6505 16.9612 40.5268 14.9436 37.9252 14.9967C36.7571 15.0498 35.6952 15.5277 34.8988 16.271C31.2884 13.7756 26.9878 12.4482 22.5811 12.342L24.6517 2.41349L31.5008 3.79393C31.7132 5.54602 33.2529 6.82027 35.005 6.6079C36.7571 6.39552 38.0313 4.8558 37.819 3.10371C37.6066 1.35161 36.0669 0.0773626 34.3148 0.289738C33.306 0.395925 32.4034 0.979957 31.9256 1.82946L24.1208 0.289738C23.5898 0.18355 23.0589 0.502113 22.9527 1.03305L20.6166 12.1297C16.1567 12.1827 11.8561 13.5632 8.13955 16.0586C6.28126 14.3065 3.30801 14.3596 1.55592 16.271C-0.196178 18.1292 -0.143084 21.1025 1.76829 22.8546C2.13995 23.1732 2.5647 23.4917 3.04254 23.7041C2.98945 24.1819 2.98945 24.6598 3.04254 25.0845C3.04254 32.2522 11.3783 38.0925 21.6785 38.0925C31.9787 38.0925 40.3144 32.3053 40.3144 25.0845C40.3675 24.6067 40.3675 24.1288 40.3144 23.7041C41.801 22.9608 42.8098 21.3149 42.7567 19.5097ZM10.7411 22.7484C10.7411 20.9963 12.1747 19.5628 13.9268 19.5628C15.6789 19.5628 17.1124 20.9963 17.1124 22.7484C17.1124 24.5005 15.6789 25.934 13.9268 25.934C12.1747 25.934 10.7411 24.5005 10.7411 22.7484ZM29.324 31.562C27.0409 33.261 24.2801 34.1636 21.4661 34.0043C18.6521 34.1105 15.8381 33.261 13.6082 31.562C13.2896 31.1903 13.3427 30.6594 13.7144 30.3408C14.033 30.0753 14.4577 30.0753 14.8294 30.3408C16.7407 31.7213 19.0769 32.4646 21.4661 32.3584C23.8553 32.4646 26.1914 31.8274 28.1559 30.3939C28.5276 30.0753 29.0585 30.0753 29.4302 30.3939C29.7487 30.7656 29.7487 31.2965 29.4302 31.6682V31.562H29.324ZM28.793 26.0933C27.0409 26.0933 25.6074 24.6598 25.6074 22.9077C25.6074 21.1556 27.0409 19.7221 28.793 19.7221C30.5451 19.7221 31.9787 21.1556 31.9787 22.9077C32.0318 24.6598 30.7044 26.1464 28.8992 26.1995C28.8461 26.1995 28.793 26.1995 28.7399 26.1995L28.793 26.0933Z" fill="white"/>
</svg>
