<svg width="200" height="31" viewBox="0 0 200 31" fill="none" xmlns="http://www.w3.org/2000/svg">
<g clip-path="url(#clip0_10_2195)">
<path d="M129.653 26.2581C129.653 26.7481 129.653 26.8603 129.983 27.1626L131.826 28.9935V29.0721H123.651V25.5536C123.256 26.6801 122.521 27.6541 121.549 28.3391C120.577 29.0241 119.416 29.3859 118.23 29.3738C114.029 29.3738 110.979 26.0237 110.979 19.8589C110.979 14.0838 114.27 10.23 118.89 10.23C119.893 10.169 120.889 10.4248 121.741 10.9615C122.592 11.4983 123.256 12.2893 123.639 13.2241V5.46036C123.67 5.28469 123.651 5.10408 123.585 4.9385C123.52 4.77291 123.41 4.62882 123.268 4.52215L121.511 2.80158V2.7249L129.654 1.75241V26.2581H129.653ZM123.651 25.1403V13.5576C123.36 13.1894 122.99 12.8932 122.568 12.6921C122.146 12.4909 121.683 12.3901 121.216 12.3975C119.229 12.3975 117.309 14.2278 117.309 19.6675C117.309 24.7607 118.965 26.5592 121.028 26.5592C121.545 26.5475 122.053 26.4129 122.508 26.1663C122.964 25.9198 123.356 25.5682 123.651 25.1403ZM135.074 29.0721V13.4348C135.099 13.2632 135.083 13.0879 135.025 12.9242C134.968 12.7606 134.871 12.6137 134.744 12.4966L132.934 10.5984V10.5198H141.107V26.3809C141.107 26.8715 141.107 26.9831 141.437 27.2848L143.238 29.0048V29.0833L135.074 29.0721ZM134.776 4.80143C134.776 2.94995 136.251 1.45068 138.069 1.45068C139.888 1.45068 141.36 2.9512 141.36 4.80143C141.36 6.65292 139.888 8.15156 138.069 8.15156C136.251 8.15156 134.777 6.65229 134.777 4.80143H134.776ZM163.162 26.2244C163.162 26.715 163.162 26.8603 163.491 27.1626L165.335 28.9935V29.0721H157.116V25.0624C156.759 26.292 156.019 27.3739 155.007 28.1497C153.994 28.9254 152.761 29.3542 151.488 29.3732C147.845 29.3732 145.892 26.6708 145.892 21.5546C145.892 19.0872 145.892 16.3835 145.969 13.3463C145.999 13.1797 145.984 13.0081 145.926 12.8491C145.868 12.6902 145.769 12.5496 145.64 12.4418L143.831 10.5971V10.5186H151.94V20.7161C151.94 24.0668 152.422 26.3005 154.485 26.3005C155.032 26.2646 155.561 26.0916 156.025 25.7972C156.489 25.5028 156.872 25.0964 157.14 24.6148V13.4448C157.166 13.2732 157.149 13.0979 157.092 12.9342C157.034 12.7706 156.938 12.6237 156.811 12.5066L154.99 10.5971V10.5186H163.164V26.2232L163.162 26.2244ZM190.989 29.0708C190.989 28.4686 191.099 20.7853 191.099 19.0192C191.099 15.6691 190.583 13.3575 188.268 13.3575C187.691 13.3763 187.128 13.5318 186.622 13.8112C186.117 14.0907 185.684 14.4863 185.359 14.9659C185.592 16.0107 185.702 17.0792 185.689 18.149C185.689 20.4717 185.612 23.431 185.579 26.3921C185.518 26.7312 185.644 27.0772 185.908 27.2967L187.751 29.0172V29.0945H179.501C179.501 28.536 179.61 20.8071 179.61 19.0417C179.61 15.636 179.094 13.38 176.812 13.38C176.256 13.401 175.715 13.5636 175.239 13.8525C174.763 14.1415 174.368 14.5473 174.09 15.032V26.4251C174.09 26.917 174.09 27.0286 174.42 27.3297L176.219 29.0503V29.1276H168.056V13.4909C168.082 13.3192 168.066 13.1436 168.008 12.9798C167.951 12.8159 167.854 12.6688 167.727 12.5515L165.916 10.5978V10.5192H174.092V14.4952C174.851 11.8707 177.266 10.1072 179.952 10.2181C182.672 10.2181 184.517 11.7598 185.295 14.686C185.708 13.3769 186.529 12.2361 187.635 11.4317C188.741 10.6274 190.075 10.2019 191.439 10.2181C195.083 10.2181 197.146 12.9536 197.146 18.1253C197.146 20.5939 197.069 23.4085 197.036 26.3678C197.004 26.5388 197.023 26.7154 197.089 26.8761C197.155 27.0368 197.266 27.1747 197.409 27.273L199.208 28.9929V29.0715H190.99L190.989 29.0702V29.0708ZM88.2992 26.6377L90.7228 28.9935V29.0721H78.4236V28.9935L80.8925 26.6377C81.1563 26.4183 81.2826 26.0723 81.2219 25.7326V10.6651C81.2219 10.0292 81.2219 9.16894 81.3315 8.43209L73.0369 29.3732H72.9378L64.3466 10.1065C64.1589 9.62714 64.1038 9.59285 63.9831 9.26931V21.9018C63.8802 22.7469 64.0212 23.6039 64.3893 24.3704L67.8465 28.9935V29.0721H58.6732V28.9935L62.1285 24.358C62.4938 23.595 62.635 22.7428 62.5353 21.9018V7.94023C62.5924 7.25429 62.3893 6.57204 61.9669 6.03077L59.5184 2.80158V2.7249H68.2967L75.647 19.0417L82.1204 2.7249H90.7117V2.8022L88.2992 5.53766C88.1567 5.64421 88.0465 5.78841 87.9805 5.95425C87.9146 6.12009 87.8957 6.30108 87.9258 6.47712V25.7326C87.8942 25.9036 87.9126 26.0803 87.9789 26.241C88.0452 26.4017 88.1565 26.5395 88.2992 26.6377ZM97.9208 19.0872V19.1645C97.9208 23.9453 100.346 25.866 103.189 25.866C105.561 25.9483 107.757 24.5942 108.783 22.4155H108.86C107.873 27.1408 104.999 29.3732 100.697 29.3732C96.0563 29.3732 91.6783 26.5261 91.6783 19.9244C91.6783 12.9885 96.0668 10.2181 100.917 10.2181C104.823 10.2181 108.981 12.0945 108.981 18.1271V19.0872H97.9214H97.9208ZM97.9208 18.1271H103.331V17.1546C103.331 12.2398 102.332 10.9332 100.829 10.9332C99.0082 10.9332 97.8991 12.8881 97.8991 18.1271H97.9208Z" fill="white"/>
<path d="M15.5553 29.8748C23.4933 29.8748 29.9283 23.3965 29.9283 15.4052C29.9283 7.41382 23.4933 0.935547 15.5553 0.935547C7.61728 0.935547 1.18225 7.41382 1.18225 15.4052C1.18225 23.3965 7.61728 29.8748 15.5553 29.8748Z" fill="white"/>
<path d="M38.7109 29.8748C42.6798 29.8748 45.8971 23.3965 45.8971 15.4052C45.8971 7.41382 42.6798 0.935547 38.7109 0.935547C34.7421 0.935547 31.5247 7.41382 31.5247 15.4052C31.5247 23.3965 34.7421 29.8748 38.7109 29.8748Z" fill="white"/>
<path d="M49.8899 29.8748C51.2128 29.8748 52.2851 23.3965 52.2851 15.4052C52.2851 7.41382 51.2128 0.935547 49.8899 0.935547C48.5671 0.935547 47.4948 7.41382 47.4948 15.4052C47.4948 23.3965 48.5671 29.8748 49.8899 29.8748Z" fill="white"/>
</g>
<defs>
<clipPath id="clip0_10_2195">
<rect width="198.774" height="29.923" fill="white" transform="translate(0.758667 0.541504)"/>
</clipPath>
</defs>
</svg>
