<svg width="264" height="25" viewBox="0 0 264 25" fill="none" xmlns="http://www.w3.org/2000/svg">
<path d="M29.728 10.0879C29.8958 9.43588 29.9921 8.75331 29.9921 8.04309C29.9921 3.60447 26.3819 0 21.9395 0C16.7983 0.00953312 16.1119 3.92097 16.1119 3.92097C16.1119 3.92097 13.9536 1.25456 10.1442 1.7131C6.71223 2.39663 4.4729 5.48154 4.4729 8.62843C4.4729 9.16991 4.55108 9.68756 4.69121 10.189C2.11918 11.129 0.288818 13.6019 0.288818 16.4942C0.288818 20.2035 3.29175 23.2103 7.0049 23.2103H27.708C31.4192 23.2103 34.4222 20.2035 34.4222 16.4942C34.4222 13.4865 32.4517 10.9459 29.728 10.0879ZM17.437 23.1369L11.1385 16.9947H14.2091V7.93251H20.5048V16.8422H23.5773L17.437 23.1369Z" fill="white"/>
<path d="M56.1229 20.2364C54.8751 20.2364 53.8704 19.803 53.1086 18.9361C52.3468 18.0561 51.9659 16.8215 51.9659 15.2322C51.9659 14.1946 52.1695 13.3015 52.5766 12.5528C52.9969 11.791 53.5354 11.2065 54.1922 10.7994C54.862 10.3922 55.5713 10.1886 56.3199 10.1886C56.8847 10.1886 57.3969 10.3003 57.8566 10.5235C58.3295 10.7337 58.7695 11.0358 59.1766 11.4298H59.2358L59.1569 9.65668V5.97249H60.7725V20H59.4328L59.2949 18.7391H59.2358C58.8549 19.1463 58.3886 19.5009 57.8369 19.803C57.2984 20.0919 56.7271 20.2364 56.1229 20.2364ZM56.4578 18.877C56.9307 18.877 57.3904 18.7588 57.8369 18.5224C58.2835 18.2728 58.7235 17.9116 59.1569 17.4388V12.671C58.7235 12.2639 58.2966 11.9749 57.8763 11.8042C57.4692 11.6334 57.0554 11.548 56.6351 11.548C56.0835 11.548 55.5778 11.7056 55.1181 12.0209C54.6716 12.323 54.3104 12.7498 54.0345 13.3015C53.7719 13.84 53.6405 14.477 53.6405 15.2125C53.6405 16.3552 53.8901 17.2549 54.3892 17.9116C54.8883 18.5552 55.5778 18.877 56.4578 18.877ZM68.5075 20.2364C67.6669 20.2364 66.8854 20.0394 66.163 19.6454C65.4538 19.2513 64.8758 18.68 64.4293 17.9313C63.9958 17.1827 63.7791 16.283 63.7791 15.2322C63.7791 14.1552 63.9958 13.2424 64.4293 12.4937C64.8758 11.745 65.4538 11.1737 66.163 10.7797C66.8854 10.3856 67.6669 10.1886 68.5075 10.1886C69.3481 10.1886 70.123 10.3856 70.8323 10.7797C71.5547 11.1737 72.1326 11.745 72.566 12.4937C73.0126 13.2424 73.2359 14.1552 73.2359 15.2322C73.2359 16.283 73.0126 17.1827 72.566 17.9313C72.1326 18.68 71.5547 19.2513 70.8323 19.6454C70.123 20.0394 69.3481 20.2364 68.5075 20.2364ZM68.5075 18.8967C69.1248 18.8967 69.6633 18.7457 70.123 18.4436C70.5827 18.1284 70.9374 17.6949 71.1869 17.1433C71.4365 16.5916 71.5612 15.9546 71.5612 15.2322C71.5612 14.4967 71.4365 13.8531 71.1869 13.3015C70.9374 12.7367 70.5827 12.3033 70.123 12.0012C69.6633 11.6859 69.1248 11.5283 68.5075 11.5283C67.8902 11.5283 67.3517 11.6859 66.892 12.0012C66.4454 12.3033 66.0908 12.7367 65.8281 13.3015C65.5785 13.8531 65.4538 14.4967 65.4538 15.2322C65.4538 15.9546 65.5785 16.5916 65.8281 17.1433C66.0908 17.6949 66.4454 18.1284 66.892 18.4436C67.3517 18.7457 67.8902 18.8967 68.5075 18.8967ZM76.6562 20L74.5679 10.425H76.1834L77.3261 15.9809C77.418 16.4275 77.4968 16.8675 77.5625 17.3009C77.6413 17.7212 77.707 18.1612 77.7595 18.6209H77.8383C77.904 18.1612 77.9828 17.7212 78.0748 17.3009C78.1798 16.8675 78.2849 16.4275 78.39 15.9809L79.5721 11.0161H81.1876L82.3303 15.9809C82.4354 16.4275 82.547 16.8675 82.6652 17.3009C82.7834 17.7212 82.8688 18.1612 82.9213 18.6209H83.0001C83.079 18.1612 83.1446 17.7212 83.1972 17.3009C83.2628 16.8675 83.3416 16.4275 83.4336 15.9809L84.5763 10.425H86.0736L84.0246 20H81.9363L80.833 15.4292C80.7542 15.0877 80.6754 14.6806 80.5966 14.2077C80.5177 13.7349 80.4389 13.1964 80.3601 12.5922H80.2813C80.2025 13.1964 80.1237 13.7349 80.0449 14.2077C79.9661 14.6806 79.8873 15.0877 79.8085 15.4292L78.7446 20H76.6562ZM88.0558 20V10.425H89.3955L89.5334 12.0603H89.6122C90.1113 11.5218 90.6498 11.0752 91.2277 10.7206C91.8056 10.3659 92.4689 10.1886 93.2176 10.1886C94.3471 10.1886 95.1812 10.517 95.7197 11.1737C96.2582 11.8304 96.5274 12.7892 96.5274 14.0501V20H94.9119V14.2668C94.9119 13.3606 94.7411 12.6907 94.3997 12.2573C94.0582 11.8107 93.4934 11.5874 92.7053 11.5874C92.1405 11.5874 91.6349 11.7319 91.1883 12.0209C90.7417 12.3098 90.2361 12.7433 89.6713 13.3212V20H88.0558ZM106.036 20.2364C105.024 20.2364 104.249 19.9475 103.711 19.3696C103.172 18.7785 102.903 17.9182 102.903 16.7886V7.29249H99.6326V5.97249H104.519V16.9069C104.519 17.603 104.689 18.1087 105.031 18.4239C105.372 18.7391 105.825 18.8967 106.39 18.8967C106.666 18.8967 106.948 18.8639 107.237 18.7982C107.526 18.7194 107.848 18.6012 108.203 18.4436L108.616 19.6651C108.183 19.8227 107.776 19.954 107.395 20.0591C107.014 20.1773 106.561 20.2364 106.036 20.2364ZM115.76 20.2364C114.92 20.2364 114.138 20.0394 113.416 19.6454C112.707 19.2513 112.129 18.68 111.682 17.9313C111.249 17.1827 111.032 16.283 111.032 15.2322C111.032 14.1552 111.249 13.2424 111.682 12.4937C112.129 11.745 112.707 11.1737 113.416 10.7797C114.138 10.3856 114.92 10.1886 115.76 10.1886C116.601 10.1886 117.376 10.3856 118.085 10.7797C118.808 11.1737 119.386 11.745 119.819 12.4937C120.266 13.2424 120.489 14.1552 120.489 15.2322C120.489 16.283 120.266 17.1827 119.819 17.9313C119.386 18.68 118.808 19.2513 118.085 19.6454C117.376 20.0394 116.601 20.2364 115.76 20.2364ZM115.76 18.8967C116.378 18.8967 116.916 18.7457 117.376 18.4436C117.836 18.1284 118.19 17.6949 118.44 17.1433C118.689 16.5916 118.814 15.9546 118.814 15.2322C118.814 14.4967 118.689 13.8531 118.44 13.3015C118.19 12.7367 117.836 12.3033 117.376 12.0012C116.916 11.6859 116.378 11.5283 115.76 11.5283C115.143 11.5283 114.605 11.6859 114.145 12.0012C113.698 12.3033 113.344 12.7367 113.081 13.3015C112.831 13.8531 112.707 14.4967 112.707 15.2322C112.707 15.9546 112.831 16.5916 113.081 17.1433C113.344 17.6949 113.698 18.1284 114.145 18.4436C114.605 18.7457 115.143 18.8967 115.76 18.8967ZM126.51 20.2364C125.919 20.2364 125.374 20.1313 124.875 19.9212C124.375 19.6979 123.981 19.3827 123.692 18.9755C123.404 18.5684 123.259 18.0824 123.259 17.5176C123.259 16.4406 123.798 15.6263 124.875 15.0746C125.952 14.5098 127.725 14.1289 130.194 13.9319C130.181 13.4985 130.089 13.0979 129.918 12.7301C129.761 12.3624 129.498 12.0734 129.13 11.8633C128.762 11.64 128.27 11.5283 127.653 11.5283C127.245 11.5283 126.838 11.5874 126.431 11.7056C126.037 11.8107 125.656 11.9552 125.288 12.1391C124.934 12.3098 124.605 12.4871 124.303 12.671L123.673 11.5677C123.988 11.3576 124.369 11.1474 124.815 10.9373C125.275 10.714 125.768 10.5367 126.293 10.4053C126.818 10.2609 127.364 10.1886 127.928 10.1886C128.808 10.1886 129.531 10.3528 130.095 10.6812C130.673 11.0095 131.1 11.4692 131.376 12.0603C131.665 12.6382 131.81 13.3277 131.81 14.1289V20H130.49L130.352 18.6997H130.293C129.767 19.12 129.176 19.4812 128.519 19.7833C127.863 20.0854 127.193 20.2364 126.51 20.2364ZM126.943 18.9361C127.495 18.9361 128.04 18.8113 128.578 18.5618C129.117 18.3122 129.655 17.9642 130.194 17.5176V14.9958C128.828 15.114 127.751 15.2782 126.963 15.4883C126.188 15.6985 125.636 15.9677 125.308 16.2961C124.993 16.6113 124.835 16.9791 124.835 17.3994C124.835 17.754 124.934 18.0495 125.131 18.286C125.328 18.5092 125.584 18.6734 125.899 18.7785C126.227 18.8836 126.575 18.9361 126.943 18.9361ZM138.816 20.2364C137.568 20.2364 136.563 19.803 135.801 18.9361C135.039 18.0561 134.659 16.8215 134.659 15.2322C134.659 14.1946 134.862 13.3015 135.269 12.5528C135.69 11.791 136.228 11.2065 136.885 10.7994C137.555 10.3922 138.264 10.1886 139.013 10.1886C139.577 10.1886 140.09 10.3003 140.549 10.5235C141.022 10.7337 141.462 11.0358 141.869 11.4298H141.928L141.85 9.65668V5.97249H143.465V20H142.125L141.988 18.7391H141.928C141.548 19.1463 141.081 19.5009 140.53 19.803C139.991 20.0919 139.42 20.2364 138.816 20.2364ZM139.151 18.877C139.623 18.877 140.083 18.7588 140.53 18.5224C140.976 18.2728 141.416 17.9116 141.85 17.4388V12.671C141.416 12.2639 140.989 11.9749 140.569 11.8042C140.162 11.6334 139.748 11.548 139.328 11.548C138.776 11.548 138.271 11.7056 137.811 12.0209C137.364 12.323 137.003 12.7498 136.727 13.3015C136.465 13.84 136.333 14.477 136.333 15.2125C136.333 16.3552 136.583 17.2549 137.082 17.9116C137.581 18.5552 138.271 18.877 139.151 18.877ZM158.246 20V10.425H159.546L159.684 11.6859H159.723C159.973 11.2394 160.262 10.8782 160.59 10.6024C160.918 10.3265 161.358 10.1886 161.91 10.1886C162.383 10.1886 162.77 10.3265 163.073 10.6024C163.375 10.8782 163.591 11.2919 163.723 11.8436C163.998 11.3313 164.301 10.9307 164.629 10.6418C164.97 10.3397 165.417 10.1886 165.969 10.1886C166.639 10.1886 167.157 10.4447 167.525 10.957C167.906 11.4561 168.096 12.185 168.096 13.1439V20H166.481V13.2621C166.481 12.1456 166.139 11.5874 165.456 11.5874C165.128 11.5874 164.852 11.7122 164.629 11.9618C164.419 12.1982 164.182 12.5659 163.92 13.065V20H162.422V13.2621C162.422 12.7104 162.344 12.2967 162.186 12.0209C162.041 11.7319 161.792 11.5874 161.437 11.5874C161.109 11.5874 160.82 11.7122 160.57 11.9618C160.334 12.1982 160.098 12.5659 159.861 13.065V20H158.246ZM175.418 20.2364C174.459 20.2364 173.585 20.0394 172.797 19.6454C172.022 19.2513 171.405 18.68 170.945 17.9313C170.486 17.1695 170.256 16.2567 170.256 15.1928C170.256 14.1552 170.486 13.2621 170.945 12.5134C171.405 11.7647 172.003 11.1934 172.738 10.7994C173.487 10.3922 174.288 10.1886 175.142 10.1886C176.061 10.1886 176.843 10.3791 177.486 10.76C178.143 11.1277 178.642 11.6465 178.984 12.3164C179.338 12.9862 179.516 13.7743 179.516 14.6806C179.516 14.8645 179.509 15.0418 179.496 15.2125C179.483 15.3833 179.463 15.5343 179.437 15.6657H171.339V14.4048H178.471L178.058 14.8579C178.058 13.7283 177.795 12.8812 177.27 12.3164C176.757 11.7516 176.061 11.4692 175.181 11.4692C174.59 11.4692 174.039 11.6137 173.526 11.9027C173.027 12.1916 172.627 12.6119 172.325 13.1636C172.022 13.7152 171.871 14.3916 171.871 15.1928C171.871 16.0203 172.036 16.7098 172.364 17.2615C172.692 17.8131 173.139 18.2334 173.704 18.5224C174.268 18.7982 174.905 18.9361 175.615 18.9361C176.193 18.9361 176.711 18.8573 177.171 18.6997C177.644 18.529 178.097 18.3057 178.531 18.0298L179.122 19.0937C178.649 19.409 178.104 19.6782 177.486 19.9015C176.882 20.1248 176.193 20.2364 175.418 20.2364ZM186.069 20.2364C184.821 20.2364 183.816 19.803 183.054 18.9361C182.292 18.0561 181.912 16.8215 181.912 15.2322C181.912 14.1946 182.115 13.3015 182.522 12.5528C182.943 11.791 183.481 11.2065 184.138 10.7994C184.808 10.3922 185.517 10.1886 186.266 10.1886C186.83 10.1886 187.343 10.3003 187.802 10.5235C188.275 10.7337 188.715 11.0358 189.122 11.4298H189.181L189.103 9.65668V5.97249H190.718V20H189.378L189.241 18.7391H189.181C188.801 19.1463 188.334 19.5009 187.783 19.803C187.244 20.0919 186.673 20.2364 186.069 20.2364ZM186.403 18.877C186.876 18.877 187.336 18.7588 187.783 18.5224C188.229 18.2728 188.669 17.9116 189.103 17.4388V12.671C188.669 12.2639 188.242 11.9749 187.822 11.8042C187.415 11.6334 187.001 11.548 186.581 11.548C186.029 11.548 185.523 11.7056 185.064 12.0209C184.617 12.323 184.256 12.7498 183.98 13.3015C183.718 13.84 183.586 14.477 183.586 15.2125C183.586 16.3552 183.836 17.2549 184.335 17.9116C184.834 18.5552 185.523 18.877 186.403 18.877ZM198.768 20V11.745H194.316V10.425H200.384V20H198.768ZM199.399 8.41548C199.031 8.41548 198.722 8.30384 198.473 8.08056C198.223 7.84414 198.099 7.53548 198.099 7.15458C198.099 6.77368 198.223 6.47159 198.473 6.24831C198.722 6.01189 199.031 5.89368 199.399 5.89368C199.767 5.89368 200.075 6.01189 200.325 6.24831C200.574 6.47159 200.699 6.77368 200.699 7.15458C200.699 7.53548 200.574 7.84414 200.325 8.08056C200.075 8.30384 199.767 8.41548 199.399 8.41548ZM209.202 20.2364C208.611 20.2364 208.066 20.1313 207.567 19.9212C207.068 19.6979 206.674 19.3827 206.385 18.9755C206.096 18.5684 205.952 18.0824 205.952 17.5176C205.952 16.4406 206.49 15.6263 207.567 15.0746C208.644 14.5098 210.417 14.1289 212.887 13.9319C212.874 13.4985 212.782 13.0979 212.611 12.7301C212.453 12.3624 212.191 12.0734 211.823 11.8633C211.455 11.64 210.963 11.5283 210.345 11.5283C209.938 11.5283 209.531 11.5874 209.124 11.7056C208.73 11.8107 208.349 11.9552 207.981 12.1391C207.626 12.3098 207.298 12.4871 206.996 12.671L206.365 11.5677C206.681 11.3576 207.062 11.1474 207.508 10.9373C207.968 10.714 208.46 10.5367 208.986 10.4053C209.511 10.2609 210.056 10.1886 210.621 10.1886C211.501 10.1886 212.223 10.3528 212.788 10.6812C213.366 11.0095 213.793 11.4692 214.069 12.0603C214.358 12.6382 214.502 13.3277 214.502 14.1289V20H213.182L213.044 18.6997H212.985C212.46 19.12 211.869 19.4812 211.212 19.7833C210.555 20.0854 209.885 20.2364 209.202 20.2364ZM209.636 18.9361C210.188 18.9361 210.733 18.8113 211.271 18.5618C211.81 18.3122 212.348 17.9642 212.887 17.5176V14.9958C211.521 15.114 210.444 15.2782 209.656 15.4883C208.881 15.6985 208.329 15.9677 208.001 16.2961C207.685 16.6113 207.528 16.9791 207.528 17.3994C207.528 17.754 207.626 18.0495 207.823 18.286C208.02 18.5092 208.277 18.6734 208.592 18.7785C208.92 18.8836 209.268 18.9361 209.636 18.9361ZM230.071 20V5.97249H231.686V15.4686H231.765L236.927 10.425H238.779L231.686 17.3994V20H230.071ZM237.479 20L233.735 14.8973L234.72 13.8531L239.291 20H237.479ZM246.021 20V11.745H241.569V10.425H247.637V20H246.021ZM246.652 8.41548C246.284 8.41548 245.975 8.30384 245.726 8.08056C245.476 7.84414 245.351 7.53548 245.351 7.15458C245.351 6.77368 245.476 6.47159 245.726 6.24831C245.975 6.01189 246.284 5.89368 246.652 5.89368C247.02 5.89368 247.328 6.01189 247.578 6.24831C247.827 6.47159 247.952 6.77368 247.952 7.15458C247.952 7.53548 247.827 7.84414 247.578 8.08056C247.328 8.30384 247.02 8.41548 246.652 8.41548ZM259.371 20.2364C258.439 20.2364 257.703 20.0722 257.165 19.7439C256.626 19.4024 256.239 18.9361 256.002 18.3451C255.779 17.754 255.667 17.0645 255.667 16.2764V11.745H252.968V10.5235L255.727 10.425L255.943 7.3516H257.283V10.425H261.992V11.745H257.283V16.2961C257.283 16.8609 257.355 17.3403 257.5 17.7343C257.644 18.1284 257.894 18.4239 258.248 18.6209C258.603 18.8179 259.089 18.9164 259.706 18.9164C260.166 18.9164 260.58 18.877 260.947 18.7982C261.315 18.7194 261.67 18.6143 262.011 18.483L262.366 19.6651C261.933 19.8227 261.473 19.954 260.987 20.0591C260.514 20.1773 259.975 20.2364 259.371 20.2364Z" fill="white"/>
</svg>
